<?xml version="1.0" encoding="iso-8859-1"?>
<!-- Generator: Adobe Illustrator 19.0.0, SVG Export Plug-In . SVG Version: 6.00 Build 0)  -->
<svg version="1.1" id="Layer_1" xmlns="http://www.w3.org/2000/svg" xmlns:xlink="http://www.w3.org/1999/xlink" x="0px" y="0px"
	 viewBox="0 0 460 460" style="enable-background:new 0 0 460 460;" xml:space="preserve">
<g>
	<path style="fill:#FF0F27;" d="M230,0C102.974,0,0,102.975,0,230c0,98.095,61.41,181.847,147.884,214.908L449.33,160.555
		C419.885,67.472,332.822,0,230,0z"/>
	<path style="fill:#C2001B;" d="M449.32,160.559L340.261,51.5L71.5,368.5l76.394,76.394C173.396,454.644,201.071,460,230,460
		c127.026,0,230-102.975,230-230C460,205.796,456.251,182.471,449.32,160.559z"/>
	<polygon style="fill:#273B7A;" points="71.5,166.608 119.739,217.415 139.739,166.608 	"/>
	<polygon style="fill:#121149;" points="388.5,166.608 340.261,217.415 306.478,166.608 	"/>
	<polygon style="fill:#C2FBFF;" points="340.261,51.5 230,51.5 216.217,309.398 340.261,309.398 	"/>
	<rect x="119.739" y="51.5" style="fill:#FFFFFF;" width="110.261" height="257.898"/>
	<polygon style="fill:#FEE187;" points="71.5,166.608 71.5,368.5 203.021,317.898 203.021,267.554 	"/>
	<polygon style="fill:#FFC61B;" points="256.979,267.554 256.979,317.898 388.5,368.5 388.5,166.608 	"/>
	<polygon style="fill:#D48B07;" points="388.5,368.5 230,368.5 209.326,328.38 230,288.259 256.979,267.557 	"/>
	<polygon style="fill:#FFC61B;" points="230,288.259 230,368.5 71.5,368.5 203.021,267.557 	"/>
</g>
<g>
</g>
<g>
</g>
<g>
</g>
<g>
</g>
<g>
</g>
<g>
</g>
<g>
</g>
<g>
</g>
<g>
</g>
<g>
</g>
<g>
</g>
<g>
</g>
<g>
</g>
<g>
</g>
<g>
</g>
</svg>
